<svg xmlns="http://www.w3.org/2000/svg" xmlns:xlink="http://www.w3.org/1999/xlink" width="512" zoomAndPan="magnify" viewBox="0 0 384 383.999986" height="512" preserveAspectRatio="xMidYMid meet" version="1.0"><defs><g/><clipPath id="dfd8a32894"><path d="M 38.398438 38.398438 L 345.601562 38.398438 L 345.601562 345.601562 L 38.398438 345.601562 Z M 38.398438 38.398438 " clip-rule="nonzero"/></clipPath><clipPath id="19770d8cf5"><path d="M 192 38.398438 C 107.167969 38.398438 38.398438 107.167969 38.398438 192 C 38.398438 276.832031 107.167969 345.601562 192 345.601562 C 276.832031 345.601562 345.601562 276.832031 345.601562 192 C 345.601562 107.167969 276.832031 38.398438 192 38.398438 " clip-rule="nonzero"/></clipPath><clipPath id="9bec0570ec"><path d="M 38.398438 38.398438 L 345.898438 38.398438 L 345.898438 345.898438 L 38.398438 345.898438 Z M 38.398438 38.398438 " clip-rule="nonzero"/></clipPath></defs><g clip-path="url(#dfd8a32894)"><g clip-path="url(#19770d8cf5)"><path fill="#000000" d="M 38.398438 38.398438 L 345.601562 38.398438 L 345.601562 345.601562 L 38.398438 345.601562 Z M 38.398438 38.398438 " fill-opacity="1" fill-rule="nonzero"/></g></g><g clip-path="url(#9bec0570ec)"><path fill="#77d8f7" d="M 192.148438 38.398438 C 107.203125 38.398438 38.398438 107.203125 38.398438 192.148438 C 38.398438 277.097656 107.203125 345.898438 192.148438 345.898438 C 277.097656 345.898438 345.898438 277.097656 345.898438 192.148438 C 345.898438 107.203125 277.097656 38.398438 192.148438 38.398438 Z M 192.148438 315.148438 C 124.191406 315.148438 69.148438 260.109375 69.148438 192.148438 C 69.148438 124.191406 124.191406 69.148438 192.148438 69.148438 C 260.109375 69.148438 315.148438 124.191406 315.148438 192.148438 C 315.148438 260.109375 260.109375 315.148438 192.148438 315.148438 Z M 192.148438 315.148438 " fill-opacity="1" fill-rule="nonzero"/></g><g fill="#ffffff" fill-opacity="1"><g transform="translate(83.091761, 257.315041)"><g><path d="M 202.210938 0 L 202.210938 -125.398438 L 175.8125 -125.398438 L 175.8125 0 Z M 165.914062 -107.980469 L 147.398438 -126.496094 L 117.695312 -96.796875 L 136.03125 -78.28125 Z M 127.414062 -69.296875 L 69.664062 -126.863281 L 51.332031 -108.164062 L 108.714844 -50.78125 Z M 42.898438 0 L 42.898438 -125.398438 L 16.5 -125.398438 L 16.5 0 Z M 42.898438 0 "/></g></g></g></svg>