<?xml version="1.0"?>
<svg width="640" height="480" xmlns="http://www.w3.org/2000/svg" xmlns:svg="http://www.w3.org/2000/svg" xmlns:xlink="http://www.w3.org/1999/xlink">
 <!-- Created with SVG-edit - https://github.com/SVG-Edit/svgedit-->
 <defs>
  <symbol height="800" id="svg_125" viewBox="0 0 800 800" width="800" xmlns="http://www.w3.org/2000/svg" xmlns:cc="http://creativecommons.org/ns#" xmlns:dc="http://purl.org/dc/elements/1.1/" xmlns:inkscape="http://www.inkscape.org/namespaces/inkscape" xmlns:rdf="http://www.w3.org/1999/02/22-rdf-syntax-ns#" xmlns:sodipodi="http://sodipodi.sourceforge.net/DTD/sodipodi-0.dtd" xmlns:svg="http://www.w3.org/2000/svg">
   <metadata id="svg_124">image/svg+xml</metadata>
   <defs id="svg_110">
    <clipPath clipPathUnits="userSpaceOnUse" id="svg_5">
     <path d="m0,600l600,0l0,-600l-600,0l0,600z" id="svg_123"/>
    </clipPath>
    <clipPath clipPathUnits="userSpaceOnUse" id="svg_105">
     <path d="m91.75,399.08l241.26,0l0,-241.27l-241.26,0l0,241.27z" id="svg_122"/>
    </clipPath>
    <clipPath clipPathUnits="userSpaceOnUse" id="svg_98">
     <path d="m339.5,165.69l149.21,0l0,-149.21l-149.21,0l0,149.21z" id="svg_121"/>
    </clipPath>
    <clipPath clipPathUnits="userSpaceOnUse" id="svg_91">
     <path d="m24.51,508.5l80.27,0l0,-80.27l-80.27,0l0,80.27z" id="svg_120"/>
    </clipPath>
    <clipPath clipPathUnits="userSpaceOnUse" id="svg_84">
     <path d="m439.08,575.75l149.2,0l0,-149.21l-149.2,0l0,149.21z" id="svg_119"/>
    </clipPath>
    <clipPath clipPathUnits="userSpaceOnUse" id="svg_76">
     <path d="m125.89,136.41l45.38,0l0,-45.38l-45.38,0l0,45.38z" id="svg_118"/>
    </clipPath>
    <clipPath clipPathUnits="userSpaceOnUse" id="svg_68">
     <path d="m104.89,568.82l45.38,0l0,-45.38l-45.37,0l-0.01,45.38z" id="svg_117"/>
    </clipPath>
    <clipPath clipPathUnits="userSpaceOnUse" id="svg_60">
     <path d="m543.61,255.62l23.33,0l0,-23.33l-23.33,0l0,23.33z" id="svg_116"/>
    </clipPath>
    <clipPath clipPathUnits="userSpaceOnUse" id="svg_52">
     <path d="m460.51,265.43l23.33,0l0,-23.33l-23.33,0l0,23.33z" id="svg_115"/>
    </clipPath>
    <clipPath clipPathUnits="userSpaceOnUse" id="svg_44">
     <path d="m130.66,73.69l23.33,0l0,-23.33l-23.33,0l0,23.33z" id="svg_114"/>
    </clipPath>
    <clipPath clipPathUnits="userSpaceOnUse" id="svg_36">
     <path d="m119.61,502.95l23.33,0l0,-23.33l-23.34,0l0.01,23.33z" id="svg_113"/>
    </clipPath>
    <clipPath clipPathUnits="userSpaceOnUse" id="svg_28">
     <path d="m479.8,237.14l60.48,0l0,-60.48l-60.48,0l0,60.48z" id="svg_112"/>
    </clipPath>
    <clipPath clipPathUnits="userSpaceOnUse" id="svg_20">
     <path d="m23.62,161.78l80.28,0l0,-80.28l-80.28,0l0,80.28z" id="svg_111"/>
    </clipPath>
   </defs>
   <g id="svg_2" transform="matrix(1.3333333,0,0,-1.3333333,0,800)">
    <g id="svg_3">
     <g clip-path="url(#svg_5)" id="svg_4">
      <path d="m131.27,491.29l17.14,-355.65" fill="none" id="svg_109" stroke="#52c390" stroke-miterlimit="4" stroke-width="1.16"/>
      <path d="m471.04,477.84c-125.55,-87.28 -233.32,-163.32 -260.75,-182.7l-3.89,-2.73c0,0 140.91,-130.74 264.64,-245.55l0,9.82c-118.23,109.71 -249.38,231.39 -253.17,234.91c77.43,54.69 165.48,116.42 253.17,177.34l0,8.91z" fill="#52c390" fill-rule="nonzero" id="svg_108"/>
      <g id="svg_102">
       <g id="svg_107"/>
       <g id="svg_103">
        <g clip-path="url(#svg_105)" id="svg_104">
         <path d="m212.39,399.08c-66.63,0 -120.64,-54.02 -120.64,-120.64c0,-66.63 54.01,-120.63 120.64,-120.63c66.62,0 120.62,54 120.62,120.63c0,66.62 -54,120.64 -120.62,120.64" fill="#ffffff" fill-rule="nonzero" id="svg_106"/>
        </g>
       </g>
      </g>
      <path d="m212.39,161.83c-64.31,0 -116.61,52.31 -116.61,116.61c0,64.3 52.3,116.62 116.61,116.62c64.29,0 116.61,-52.32 116.61,-116.62c0,-64.3 -52.32,-116.61 -116.61,-116.61m0,-8.04c68.73,0 124.65,55.92 124.65,124.65c0,68.74 -55.92,124.66 -124.65,124.66c-68.74,0 -124.65,-55.92 -124.65,-124.66c0,-68.73 55.91,-124.65 124.65,-124.65" fill="#52c390" fill-rule="nonzero" id="svg_101"/>
      <g id="svg_95">
       <g id="svg_100"/>
       <g id="svg_96">
        <g clip-path="url(#svg_98)" id="svg_97">
         <path d="m414.11,165.69c-41.21,0 -74.61,-33.41 -74.61,-74.61c0,-41.21 33.41,-74.6 74.61,-74.6c41.2,0 74.6,33.39 74.6,74.6c0,41.2 -33.4,74.61 -74.6,74.61" fill="#52c390" fill-rule="nonzero" id="svg_99"/>
        </g>
       </g>
      </g>
      <path d="m414.11,18.96c-39.77,0 -72.11,32.36 -72.12,72.12c0,39.77 32.35,72.12 72.12,72.12c39.76,0 72.12,-32.35 72.12,-72.12c0,-39.76 -32.36,-72.12 -72.12,-72.12m0,-4.97c42.51,0 77.09,34.59 77.09,77.09c0,42.51 -34.58,77.09 -77.09,77.09c-42.51,0 -77.09,-34.58 -77.09,-77.09c0,-42.5 34.58,-77.09 77.09,-77.09" fill="#52c390" fill-rule="nonzero" id="svg_94"/>
      <g id="svg_88">
       <g id="svg_93"/>
       <g id="svg_89">
        <g clip-path="url(#svg_91)" id="svg_90">
         <path d="m64.65,508.5c-22.17,0 -40.14,-17.97 -40.14,-40.14c0,-22.17 17.97,-40.13 40.14,-40.13c22.16,0 40.13,17.96 40.13,40.13c0,22.17 -17.97,40.14 -40.13,40.14" fill="#52c390" fill-rule="nonzero" id="svg_92"/>
        </g>
       </g>
      </g>
      <path d="m64.65,429.56c-21.4,0 -38.8,17.41 -38.8,38.8c0,21.4 17.4,38.8 38.8,38.8c21.39,0 38.8,-17.4 38.8,-38.8c0,-21.39 -17.41,-38.8 -38.8,-38.8m0,-2.67c22.87,0 41.47,18.61 41.47,41.47c0,22.87 -18.61,41.48 -41.47,41.48c-22.87,0 -41.48,-18.61 -41.48,-41.48c0.01,-22.86 18.61,-41.47 41.48,-41.47" fill="#52c390" fill-rule="nonzero" id="svg_87"/>
      <g id="svg_81">
       <g id="svg_86"/>
       <g id="svg_82">
        <g clip-path="url(#svg_84)" id="svg_83">
         <path d="m513.68,575.75c-41.2,0 -74.6,-33.41 -74.6,-74.61c0,-41.2 33.4,-74.6 74.6,-74.6c41.2,0 74.6,33.4 74.6,74.6c0,41.2 -33.4,74.61 -74.6,74.61" fill="#52c390" fill-rule="nonzero" id="svg_85"/>
        </g>
       </g>
      </g>
      <path d="m513.68,429.02c-39.77,0 -72.11,32.36 -72.11,72.12c0,39.77 32.34,72.12 72.11,72.12c39.77,0 72.12,-32.35 72.12,-72.12c0,-39.76 -32.35,-72.12 -72.12,-72.12m0,-4.97c42.51,0 77.09,34.59 77.09,77.09c0,42.51 -34.58,77.09 -77.09,77.09c-42.51,0 -77.09,-34.58 -77.09,-77.09c0,-42.5 34.58,-77.09 77.09,-77.09" fill="#52c390" fill-rule="nonzero" id="svg_80"/>
      <path d="m83.31,441.52l67,-60.47l4.4,4.88l-67,60.46l-4.4,-4.87z" fill="#52c390" fill-rule="nonzero" id="svg_79"/>
      <g id="svg_73">
       <g id="svg_78"/>
       <g id="svg_74">
        <g clip-path="url(#svg_76)" id="svg_75">
         <path d="m161.03,94.75c10.47,6.88 13.39,20.94 6.52,31.42c-6.87,10.48 -20.94,13.39 -31.41,6.52c-10.48,-6.87 -13.4,-20.94 -6.53,-31.42c6.88,-10.47 20.94,-13.39 31.42,-6.52" fill="#52c390" fill-rule="nonzero" id="svg_77"/>
        </g>
       </g>
      </g>
      <path d="m136.55,132.06c10.11,6.63 23.74,3.8 30.37,-6.31c6.63,-10.11 3.8,-23.73 -6.31,-30.37c-10.11,-6.63 -23.73,-3.8 -30.36,6.31c-6.64,10.11 -3.81,23.73 6.3,30.37m-0.83,1.26c-10.81,-7.09 -13.83,-21.65 -6.74,-32.46c7.09,-10.81 21.66,-13.83 32.46,-6.74c10.81,7.09 13.84,21.65 6.74,32.46c-7.09,10.81 -21.65,13.84 -32.46,6.74" fill="#52c390" fill-rule="nonzero" id="svg_72"/>
      <path d="m131.44,118.31l-50.41,7.8l-0.57,-3.67l50.41,-7.8l0.57,3.67z" fill="#52c390" fill-rule="nonzero" id="svg_71"/>
      <g id="svg_65">
       <g id="svg_70"/>
       <g id="svg_66">
        <g clip-path="url(#svg_68)" id="svg_67">
         <path d="m150.27,545.88c0.14,12.53 -9.91,22.8 -22.44,22.94c-12.53,0.13 -22.8,-9.91 -22.93,-22.44c-0.14,-12.53 9.9,-22.8 22.43,-22.94c12.53,-0.13 22.8,9.91 22.94,22.44" fill="#52c390" fill-rule="nonzero" id="svg_69"/>
        </g>
       </g>
      </g>
      <path d="m105.65,546.37c0.13,12.09 10.08,21.82 22.17,21.69c12.1,-0.14 21.82,-10.08 21.69,-22.17c-0.13,-12.1 -10.08,-21.83 -22.17,-21.69c-12.09,0.13 -21.82,10.08 -21.69,22.17m-1.51,0.02c-0.14,-12.93 10.26,-23.56 23.18,-23.7c12.93,-0.15 23.56,10.26 23.7,23.18c0.15,12.93 -10.25,23.56 -23.18,23.7c-12.93,0.14 -23.56,-10.26 -23.7,-23.18" fill="#52c390" fill-rule="nonzero" id="svg_64"/>
      <path d="m115.76,534.59l-34.59,-37.49l2.73,-2.52l34.59,37.49l-2.73,2.52z" fill="#52c390" fill-rule="nonzero" id="svg_63"/>
      <g id="svg_57">
       <g id="svg_62"/>
       <g id="svg_58">
        <g clip-path="url(#svg_60)" id="svg_59">
         <path d="m566.67,241.46c1.38,6.29 -2.61,12.51 -8.9,13.89c-6.3,1.38 -12.52,-2.61 -13.89,-8.91c-1.38,-6.29 2.61,-12.51 8.9,-13.88c6.29,-1.38 12.51,2.61 13.89,8.9" fill="#52c390" fill-rule="nonzero" id="svg_61"/>
        </g>
       </g>
      </g>
      <path d="m544.26,246.36c1.33,6.08 7.35,9.94 13.42,8.61c6.08,-1.33 9.94,-7.35 8.61,-13.43c-1.33,-6.07 -7.35,-9.93 -13.43,-8.6c-6.07,1.32 -9.93,7.35 -8.6,13.42m-0.76,0.17c-1.42,-6.5 2.71,-12.93 9.2,-14.35c6.49,-1.42 12.93,2.7 14.35,9.2c1.42,6.49 -2.71,12.93 -9.2,14.35c-6.49,1.42 -12.93,-2.71 -14.35,-9.2" fill="#52c390" fill-rule="nonzero" id="svg_56"/>
      <path d="m548.12,239.38l-21.33,-15.27l1.11,-1.55l21.33,15.26l-1.11,1.56z" fill="#52c390" fill-rule="nonzero" id="svg_55"/>
      <g id="svg_49">
       <g id="svg_54"/>
       <g id="svg_50">
        <g clip-path="url(#svg_52)" id="svg_51">
         <path d="m473.29,265.38c-6.41,0.61 -12.11,-4.09 -12.73,-10.5c-0.62,-6.41 4.08,-12.11 10.5,-12.73c6.41,-0.62 12.11,4.08 12.73,10.5c0.61,6.41 -4.09,12.11 -10.5,12.73" fill="#52c390" fill-rule="nonzero" id="svg_53"/>
        </g>
       </g>
      </g>
      <path d="m471.1,242.54c-6.2,0.6 -10.75,6.11 -10.15,12.3c0.6,6.19 6.11,10.74 12.3,10.15c6.19,-0.6 10.75,-6.11 10.15,-12.3c-0.59,-6.19 -6.12,-10.75 -12.3,-10.15m-0.08,-0.77c6.62,-0.64 12.52,4.23 13.15,10.84c0.64,6.62 -4.23,12.52 -10.84,13.15c-6.62,0.64 -12.52,-4.22 -13.15,-10.84c-0.64,-6.62 4.22,-12.52 10.84,-13.15" fill="#52c390" fill-rule="nonzero" id="svg_48"/>
      <path d="m477.57,247.21l17.7,-19.36l1.41,1.29l-17.7,19.35l-1.41,-1.28z" fill="#52c390" fill-rule="nonzero" id="svg_47"/>
      <g id="svg_41">
       <g id="svg_46"/>
       <g id="svg_42">
        <g clip-path="url(#svg_44)" id="svg_43">
         <path d="m132.78,55.31c3.71,-5.27 10.99,-6.53 16.26,-2.83c5.27,3.71 6.53,10.99 2.82,16.26c-3.7,5.27 -10.98,6.53 -16.25,2.83c-5.27,-3.71 -6.53,-10.99 -2.83,-16.26" fill="#52c390" fill-rule="nonzero" id="svg_45"/>
        </g>
       </g>
      </g>
      <path d="m151.54,68.52c3.58,-5.09 2.36,-12.14 -2.73,-15.72c-5.08,-3.58 -12.13,-2.35 -15.71,2.73c-3.58,5.09 -2.35,12.14 2.73,15.72c5.09,3.58 12.14,2.35 15.71,-2.74m0.64,0.45c-3.83,5.44 -11.36,6.75 -16.79,2.92c-5.44,-3.82 -6.75,-11.36 -2.93,-16.79c3.83,-5.44 11.36,-6.75 16.8,-2.92c5.44,3.82 6.75,11.35 2.92,16.79" fill="#52c390" fill-rule="nonzero" id="svg_40"/>
      <path d="m143.79,70.39l3.16,26.04l-1.89,0.23l-3.17,-26.04l1.9,-0.23z" fill="#52c390" fill-rule="nonzero" id="svg_39"/>
      <g id="svg_33">
       <g id="svg_38"/>
       <g id="svg_34">
        <g clip-path="url(#svg_36)" id="svg_35">
         <path d="m121.73,484.57c3.71,-5.26 10.99,-6.53 16.25,-2.82c5.27,3.7 6.54,10.98 2.83,16.25c-3.71,5.27 -10.98,6.54 -16.25,2.83c-5.27,-3.71 -6.54,-10.99 -2.83,-16.26" fill="#52c390" fill-rule="nonzero" id="svg_37"/>
        </g>
       </g>
      </g>
      <path d="m140.49,497.78c3.58,-5.09 2.36,-12.14 -2.73,-15.72c-5.09,-3.57 -12.13,-2.35 -15.71,2.74c-3.58,5.08 -2.36,12.13 2.73,15.71c5.08,3.58 12.13,2.35 15.71,-2.73m0.64,0.45c-3.83,5.43 -11.36,6.74 -16.8,2.92c-5.43,-3.83 -6.74,-11.36 -2.92,-16.8c3.83,-5.44 11.36,-6.75 16.8,-2.92c5.43,3.82 6.74,11.36 2.92,16.8" fill="#52c390" fill-rule="nonzero" id="svg_32"/>
      <path d="m132.73,499.65l3.17,26.04l-1.9,0.23l-3.16,-26.04l1.89,-0.23z" fill="#52c390" fill-rule="nonzero" id="svg_31"/>
      <g id="svg_25">
       <g id="svg_30"/>
       <g id="svg_26">
        <g clip-path="url(#svg_28)" id="svg_27">
         <path d="m540.28,206.56c0.18,16.71 -13.21,30.39 -29.91,30.58c-16.7,0.18 -30.39,-13.21 -30.57,-29.91c-0.19,-16.7 13.2,-30.39 29.9,-30.57c16.7,-0.19 30.39,13.2 30.58,29.9" fill="#52c390" fill-rule="nonzero" id="svg_29"/>
        </g>
       </g>
      </g>
      <path d="m480.81,207.22c0.17,16.12 13.43,29.09 29.55,28.91c16.12,-0.18 29.09,-13.44 28.91,-29.55c-0.18,-16.12 -13.43,-29.09 -29.55,-28.91c-16.12,0.17 -29.09,13.43 -28.91,29.55m-2.02,0.02c-0.19,-17.23 13.67,-31.4 30.9,-31.59c17.23,-0.19 31.41,13.67 31.59,30.9c0.2,17.23 -13.67,31.41 -30.9,31.6c-17.23,0.19 -31.4,-13.68 -31.59,-30.91" fill="#52c390" fill-rule="nonzero" id="svg_24"/>
      <path d="m496.6,191.9l-46.11,-49.97l3.64,-3.36l46.11,49.98l-3.64,3.35z" fill="#52c390" fill-rule="nonzero" id="svg_23"/>
      <g id="svg_17">
       <g id="svg_22"/>
       <g id="svg_18">
        <g clip-path="url(#svg_20)" id="svg_19">
         <path d="m23.77,125.1c-1.9,-22.09 14.46,-41.54 36.54,-43.45c22.09,-1.9 41.53,14.46 43.44,36.54c1.9,22.09 -14.45,41.54 -36.54,43.44c-22.08,1.91 -41.53,-14.45 -43.44,-36.53" fill="#52c390" fill-rule="nonzero" id="svg_21"/>
        </g>
       </g>
      </g>
      <path d="m102.42,118.31c-1.84,-21.32 -20.68,-37.16 -41.99,-35.32c-21.32,1.84 -37.16,20.67 -35.33,41.99c1.84,21.31 20.68,37.16 41.99,35.32c21.32,-1.84 37.16,-20.68 35.33,-41.99m2.66,-0.23c1.97,22.78 -14.97,42.92 -37.76,44.89c-22.78,1.96 -42.92,-14.98 -44.88,-37.76c-1.97,-22.79 14.97,-42.92 37.76,-44.89c22.78,-1.96 42.92,14.98 44.88,37.76" fill="#52c390" fill-rule="nonzero" id="svg_16"/>
      <path d="m87.63,141.41l3.41,-3.48l50.21,44.68l-3.41,3.49l-50.21,-44.69z" fill="#52c390" fill-rule="nonzero" id="svg_15"/>
      <path d="m134.17,485.66l330.13,-223.84" fill="none" id="svg_14" stroke="#52c390" stroke-miterlimit="4" stroke-width="1.16"/>
      <path d="m472.18,253.76l-329.86,-191.73" fill="none" id="svg_13" stroke="#52c390" stroke-miterlimit="4" stroke-width="1.16"/>
      <path d="m508.98,225.68l4.7,235.15" fill="none" id="svg_12" stroke="#52c390" stroke-miterlimit="4" stroke-width="1.16"/>
      <path d="m56.95,441.52l2.44,-302.35" fill="none" id="svg_11" stroke="#52c390" stroke-miterlimit="4" stroke-width="1.16"/>
      <path d="m78.88,466.92l406.94,42.64" fill="none" id="svg_10" stroke="#52c390" stroke-miterlimit="4" stroke-width="1.16"/>
      <path d="m154.42,119.68l199.82,-43.87" fill="none" id="svg_9" stroke="#52c390" stroke-miterlimit="4" stroke-width="1.16"/>
      <path d="m412.11,133.69l68.84,325.92" fill="none" id="svg_8" stroke="#52c390" stroke-miterlimit="4" stroke-width="1.16"/>
      <path d="m127.58,546.13l339.97,-9.76" fill="none" id="svg_7" stroke="#52c390" stroke-miterlimit="4" stroke-width="1.16"/>
      <path d="m158.08,105.06l342.36,102.16" fill="none" id="svg_6" stroke="#52c390" stroke-miterlimit="4" stroke-width="1.16"/>
     </g>
    </g>
   </g>
  </symbol>
 </defs>
 <g class="layer">
  <title>Layer 1</title>
  <use id="svg_126" transform="rotate(180 380.797 240.937) matrix(0.671989 0 0 0.61815 458.702 204.64)" x="-524.64" xlink:href="#svg_125" y="-346.47"/>
 </g>
</svg>