<?xml version="1.0" standalone="no"?>
<!DOCTYPE svg PUBLIC "-//W3C//DTD SVG 20010904//EN"
 "http://www.w3.org/TR/2001/REC-SVG-20010904/DTD/svg10.dtd">
<svg version="1.0" xmlns="http://www.w3.org/2000/svg"
 width="1280.000000pt" height="1277.000000pt" viewBox="0 0 1280.000000 1277.000000"
 preserveAspectRatio="xMidYMid meet">

<g transform="translate(0.000000,1277.000000) scale(0.100000,-0.100000)"
fill="#000000" stroke="none">
<path d="M6125 12745 c-293 -57 -469 -127 -686 -274 -376 -254 -619 -615 -721
-1072 -20 -89 -23 -132 -23 -299 0 -107 3 -237 7 -288 8 -91 7 -94 -17 -117
-32 -28 -253 -121 -434 -182 -74 -24 -193 -67 -263 -94 -248 -96 -730 -269
-748 -269 -12 0 -58 53 -133 153 -63 83 -147 187 -187 229 -91 99 -242 220
-363 293 -153 91 -414 188 -580 215 -190 31 -492 19 -670 -25 -630 -159 -1110
-638 -1256 -1255 -60 -257 -63 -566 -5 -786 164 -635 614 -1092 1229 -1249
308 -79 604 -72 928 21 157 45 169 45 205 -8 57 -83 267 -426 468 -763 111
-187 216 -361 233 -387 40 -61 40 -101 0 -181 -55 -108 -576 -905 -644 -984
-43 -50 -80 -56 -145 -23 -21 11 -103 38 -182 61 -129 37 -158 41 -298 47
-247 11 -437 0 -549 -32 -233 -67 -457 -177 -636 -312 -98 -74 -242 -222 -324
-333 -80 -109 -184 -304 -234 -441 -115 -312 -124 -743 -22 -1060 88 -274 227
-502 430 -705 138 -138 261 -226 440 -314 220 -109 380 -155 600 -172 157 -12
368 -1 504 27 183 37 395 126 556 231 129 85 203 148 350 298 72 73 142 140
157 150 27 17 29 16 160 -46 289 -137 1268 -631 1344 -678 45 -28 85 -58 88
-67 3 -9 1 -91 -5 -183 -13 -194 -7 -396 15 -498 135 -622 559 -1092 1172
-1298 118 -40 199 -55 352 -66 342 -24 600 25 885 167 610 306 979 915 954
1577 -9 257 -69 482 -194 735 -64 129 -74 156 -65 175 16 35 358 399 911 972
212 220 473 492 741 775 482 508 563 590 582 590 7 0 67 -30 133 -67 273 -151
502 -224 767 -242 445 -31 868 110 1218 407 252 214 442 514 539 852 36 125
51 254 51 429 0 251 -25 387 -111 606 -144 368 -436 705 -769 887 -233 128
-546 207 -815 208 -300 0 -550 -71 -888 -253 -137 -74 -157 -80 -193 -58 -32
20 -2026 2011 -2161 2158 l-85 93 65 117 c165 298 230 477 263 723 63 478 -95
972 -430 1346 -238 264 -617 478 -936 528 -89 14 -369 37 -428 35 -15 0 -81
-11 -147 -24z m610 -449 c352 -107 651 -366 805 -699 132 -286 155 -609 65
-897 -50 -159 -155 -345 -263 -469 l-39 -44 -52 14 c-50 14 -53 17 -75 71 -27
65 -57 104 -124 159 -39 33 -169 109 -185 109 -3 0 -8 -21 -12 -47 -4 -25 -20
-89 -35 -142 -16 -53 -32 -132 -36 -175 l-7 -79 -114 -146 c-160 -204 -135
-205 -384 10 l-194 167 -8 57 c-6 43 -21 75 -63 140 -30 46 -61 100 -70 120
l-15 36 -39 -31 c-65 -52 -127 -127 -151 -185 -25 -61 -18 -56 -163 -91 l-76
-18 -36 35 c-155 148 -285 394 -335 629 -28 133 -30 343 -5 472 33 174 97 332
193 477 68 102 217 253 330 334 147 105 340 194 471 217 26 5 155 7 287 6 229
-3 244 -4 330 -30z m-4825 -1677 c152 -18 351 -99 510 -204 158 -105 317 -285
410 -466 97 -189 140 -366 140 -579 0 -243 -56 -445 -185 -665 l-28 -47 -36
73 c-49 102 -160 213 -256 259 -38 19 -71 35 -73 36 -2 1 23 37 54 80 73 102
128 213 155 311 28 100 23 261 -11 368 -87 274 -306 527 -522 602 -228 79
-476 31 -740 -143 -133 -88 -258 -253 -313 -412 -45 -129 -58 -364 -29 -546
48 -309 125 -490 227 -537 65 -29 66 -28 46 59 -11 42 -22 107 -25 145 -4 37
-9 67 -12 67 -3 0 -14 -8 -24 -17 -34 -30 -73 15 -89 102 -10 55 -1 90 32 126
26 28 28 37 39 172 42 530 100 621 445 707 109 27 185 23 313 -18 79 -26 92
-34 145 -90 192 -200 277 -358 297 -546 24 -230 -46 -586 -169 -860 -18 -38
-30 -70 -29 -71 2 -1 39 -14 83 -29 44 -14 95 -35 113 -46 33 -20 66 -79 60
-107 -4 -21 -157 -112 -261 -156 -146 -61 -273 -88 -437 -94 -167 -6 -271 8
-427 58 -98 32 -243 99 -315 146 -35 24 -38 29 -38 75 0 62 19 107 59 140 17
15 31 29 31 31 0 8 -119 -23 -188 -48 l-67 -25 -52 56 c-120 130 -234 337
-280 509 -24 93 -26 116 -27 315 -1 220 3 258 46 405 87 303 343 597 654 753
77 39 253 100 319 111 73 13 357 13 455 0z m2959 -359 c10 -5 46 -50 80 -100
87 -126 172 -232 259 -322 l75 -77 -49 -78 c-26 -43 -177 -278 -334 -523 -158
-245 -342 -530 -409 -635 -67 -104 -132 -198 -143 -208 -13 -11 -28 -15 -42
-11 -72 22 -825 397 -920 458 -31 20 -59 43 -63 52 -3 9 6 73 20 142 44 217
50 283 43 462 -3 91 -11 194 -16 230 -7 47 -6 68 3 79 23 28 119 67 557 224
129 47 334 122 455 167 402 151 443 163 484 140z m3710 -1688 l1145 -1138 -65
-109 c-100 -168 -132 -230 -184 -357 -26 -64 -55 -124 -65 -133 -17 -15 -31
-15 -192 9 -213 31 -547 77 -813 111 -319 41 -308 34 -330 213 -31 245 -73
394 -171 597 -324 672 -1071 1057 -1804 929 -410 -71 -748 -269 -1040 -609
-45 -52 -89 -96 -99 -100 -10 -3 -35 2 -56 11 -62 25 -165 95 -165 110 0 8 7
29 17 47 25 50 250 407 416 662 82 127 205 316 273 421 68 105 142 212 165
238 48 55 54 55 158 11 155 -65 397 -108 621 -108 338 -1 617 82 920 272 52
33 102 60 110 60 8 1 530 -511 1159 -1137z m-5076 -345 c371 -188 518 -270
550 -305 18 -19 18 -22 -9 -74 -30 -59 -504 -793 -565 -875 -22 -30 -48 -53
-58 -53 -24 0 -50 31 -101 120 -56 99 -415 705 -501 848 -38 62 -69 116 -69
120 0 5 34 42 76 83 43 40 112 117 156 169 119 144 125 150 142 150 9 0 179
-82 379 -183z m3143 44 c259 -65 454 -172 630 -346 171 -170 284 -369 354
-625 17 -62 20 -104 20 -255 0 -257 -27 -389 -114 -570 l-42 -87 -11 60 c-17
89 -63 195 -153 351 -122 213 -161 298 -240 516 -99 278 -136 351 -218 434
-53 54 -89 79 -170 120 -243 122 -481 166 -676 126 -246 -51 -391 -183 -427
-389 -16 -95 -6 -338 20 -508 l22 -138 -26 -71 c-34 -96 -47 -191 -35 -265 16
-97 111 -275 227 -427 38 -49 59 -65 140 -106 l96 -48 -160 -7 c-87 -3 -186
-11 -218 -16 -72 -12 -78 -8 -185 99 -175 176 -328 476 -361 710 -13 96 -7
357 11 441 63 297 257 597 507 784 140 105 319 183 521 227 118 26 367 21 488
-10z m-500 -523 c48 -70 116 -158 230 -297 l22 -26 -47 -2 c-26 -1 -58 -6 -71
-12 -20 -8 -6 -10 61 -10 l85 -1 52 -44 c72 -62 169 -125 293 -190 l107 -57 7
-167 c12 -293 -14 -414 -116 -548 l-39 -50 11 -145 c18 -231 3 -301 -71 -339
-44 -22 -134 -45 -222 -55 l-56 -6 -95 63 -96 63 -31 120 c-17 66 -34 131 -39
144 -5 18 -21 28 -68 42 -78 24 -151 75 -176 122 -24 46 -41 166 -33 237 4 45
0 71 -27 145 -36 104 -38 148 -19 475 19 336 43 403 191 541 46 44 85 79 87
79 1 0 28 -37 60 -82z m-1583 -49 c34 -17 91 -47 126 -67 l63 -37 -5 -75 c-4
-41 -16 -120 -28 -175 -20 -87 -23 -130 -23 -325 0 -198 2 -238 22 -329 66
-303 182 -541 374 -769 90 -107 209 -210 358 -311 187 -126 310 -181 534 -237
55 -14 118 -30 139 -35 l37 -10 -2 -972 -3 -972 -155 -40 c-85 -23 -195 -55
-243 -73 -107 -39 -136 -40 -176 -6 -17 14 -84 114 -148 222 -64 109 -186 314
-271 457 -85 143 -230 386 -322 540 -92 154 -293 492 -446 750 -632 1068 -714
1211 -714 1241 0 30 37 93 203 345 84 129 236 362 337 519 197 306 255 390
271 390 5 0 38 -14 72 -31z m6742 -64 c262 -55 450 -152 632 -328 287 -278
419 -603 400 -987 -6 -124 -26 -236 -59 -340 -25 -79 -106 -250 -119 -250 -5
0 -9 18 -9 40 0 58 -23 95 -72 119 -42 20 -178 41 -269 41 -43 0 -46 2 -42 23
7 35 -26 67 -74 74 -40 5 -43 4 -55 -27 -11 -27 -11 -57 -2 -164 15 -157 12
-429 -5 -471 -7 -16 -26 -60 -43 -97 l-30 -67 -72 -25 c-39 -14 -91 -30 -115
-36 -58 -15 -611 -2 -661 15 -33 11 -36 16 -52 85 -64 277 -33 379 134 438
l64 23 -12 81 c-8 44 -16 83 -18 86 -3 2 -34 -2 -68 -11 -35 -9 -137 -27 -228
-42 -306 -47 -379 -87 -415 -224 l-11 -45 -62 85 c-247 339 -315 752 -186
1144 123 376 453 706 824 823 81 25 242 61 295 64 68 5 246 -10 330 -27z
m-3047 -1080 c97 -14 346 -47 552 -75 414 -56 518 -74 539 -94 8 -9 17 -53 22
-113 16 -174 66 -384 132 -548 37 -90 145 -277 195 -335 17 -21 32 -47 32 -58
0 -42 -79 -132 -540 -612 -119 -124 -416 -434 -660 -690 -244 -256 -494 -517
-555 -580 -225 -233 -313 -326 -341 -359 -40 -46 -95 -88 -125 -96 -19 -5 -36
3 -74 33 -64 51 -217 144 -325 198 -102 51 -258 104 -398 135 l-102 22 2 975
3 976 130 31 c283 69 470 160 700 341 226 177 364 364 515 695 74 162 84 179
107 179 8 0 94 -11 191 -25z m-4792 -567 c15 -29 80 -142 145 -251 66 -109
119 -200 119 -202 0 -3 79 -136 176 -297 97 -161 370 -619 607 -1018 500 -843
659 -1109 699 -1167 15 -23 28 -50 28 -61 0 -17 -34 -60 -168 -219 -24 -28
-73 -95 -110 -149 -37 -54 -79 -107 -95 -118 l-27 -20 -513 257 c-480 240
-948 483 -996 517 l-22 15 30 125 c37 159 51 273 51 430 -1 349 -87 638 -278
925 -73 110 -96 140 -202 252 -45 48 -87 98 -93 110 -13 29 14 76 280 490 216
335 289 433 324 433 13 0 27 -17 45 -52z m7662 -885 c-26 -2 -71 -2 -100 0
-29 2 -8 3 47 3 55 0 79 -1 53 -3z m-9163 -28 c289 -60 598 -267 777 -519 153
-217 228 -454 228 -723 0 -316 -102 -602 -292 -819 l-29 -33 -71 55 c-96 74
-251 149 -372 179 -54 14 -111 25 -127 25 -28 0 -28 -1 -23 -44 l6 -44 -137
-113 c-75 -63 -140 -115 -144 -117 -4 -1 -76 46 -161 106 -142 98 -155 110
-160 142 -6 41 -8 41 -127 1 -157 -54 -303 -159 -411 -296 l-32 -39 -98 100
c-143 146 -252 320 -319 511 l-28 78 0 300 0 300 28 80 c38 109 95 224 158
319 70 105 219 259 326 335 167 119 385 208 563 231 106 13 350 5 445 -15z
m4643 -2125 c475 -96 839 -412 988 -857 112 -335 71 -727 -110 -1033 -43 -72
-149 -212 -165 -218 -4 -1 -28 7 -53 18 l-45 20 10 46 c8 33 7 76 -3 162 -9
78 -14 247 -14 502 -1 354 -3 393 -23 485 -27 128 -60 209 -118 290 -88 125
-235 213 -410 250 -247 51 -426 -33 -584 -275 -141 -214 -326 -671 -380 -936
-39 -192 -37 -373 5 -414 13 -13 15 -13 12 0 -2 8 -7 18 -13 22 -5 4 -10 30
-10 57 0 27 -3 47 -7 44 -5 -2 -8 14 -8 37 0 28 4 39 11 34 8 -5 9 5 4 34 -7
45 3 154 14 147 4 -2 5 9 3 26 -2 16 0 29 4 29 5 0 10 17 11 37 1 21 6 39 11
41 6 2 7 12 4 24 -3 13 -1 19 5 15 7 -5 9 0 6 13 -3 12 0 20 6 20 7 0 10 4 7
8 -7 12 15 93 24 87 5 -3 6 3 3 13 -2 11 2 26 11 34 8 9 13 18 11 20 -8 8 26
98 37 98 5 0 7 4 4 9 -7 10 33 111 43 111 4 0 7 8 8 18 1 9 10 35 19 57 l18
40 8 -74 c4 -41 10 -76 12 -78 2 -2 3 32 2 76 0 45 -4 81 -8 81 -13 0 -9 18 7
33 8 8 11 17 8 21 -4 3 -1 6 6 6 7 0 9 5 6 10 -3 6 -1 10 5 10 6 0 8 5 5 10
-3 6 -1 10 5 10 6 0 8 5 5 10 -3 6 -1 10 6 10 7 0 9 3 6 6 -7 7 23 64 33 64 4
0 7 6 7 13 0 19 73 128 90 134 7 3 13 11 13 18 0 6 25 35 55 64 55 52 176 118
195 106 5 -3 10 -1 10 6 0 7 11 10 29 7 18 -3 28 0 24 5 -8 13 176 2 190 -12
5 -5 16 -7 23 -4 8 3 14 0 14 -7 0 -6 5 -8 10 -5 6 3 16 3 23 -2 6 -4 17 -8
22 -8 25 -1 85 -28 85 -37 0 -6 3 -9 6 -5 18 18 212 -132 199 -154 -3 -4 4
-13 15 -19 11 -6 17 -16 14 -22 -4 -7 -3 -8 4 -4 11 6 16 -6 13 -26 0 -5 3 -8
8 -8 12 0 53 -98 46 -109 -3 -5 0 -11 7 -13 6 -2 12 -20 12 -40 1 -20 4 -34 8
-32 10 6 21 -102 13 -117 -6 -8 -4 -10 5 -4 9 6 11 -4 9 -44 -2 -28 0 -51 4
-51 9 0 9 -475 0 -484 -9 -9 -9 -206 1 -206 4 0 6 -18 4 -40 -2 -22 1 -41 5
-43 15 -5 13 -215 -1 -229 -7 -7 -12 -19 -12 -27 0 -14 1 -14 10 -1 15 23 12
-3 -5 -44 -21 -49 -76 -138 -82 -132 -3 3 4 17 14 33 24 34 45 73 40 73 -3 0
-20 -25 -38 -56 -25 -41 -50 -65 -91 -91 -32 -20 -58 -40 -58 -44 0 -5 -3 -8
-8 -7 -12 5 -92 -34 -92 -44 0 -5 -4 -6 -10 -3 -5 3 -10 2 -10 -4 0 -6 -6 -8
-14 -5 -7 3 -20 -1 -27 -8 -8 -7 -18 -13 -24 -14 -33 -1 -84 -18 -79 -25 3 -5
-2 -6 -10 -3 -9 3 -16 2 -16 -3 0 -5 -14 -7 -31 -5 -18 3 -29 1 -26 -4 3 -5
-23 -8 -56 -7 -47 1 -54 0 -27 -6 19 -4 -41 -5 -134 -4 l-169 3 -107 99 c-58
55 -134 116 -168 136 -35 20 -60 40 -57 44 3 5 -12 21 -33 36 l-37 26 35 -30
c19 -17 29 -31 23 -31 -24 0 -161 141 -189 195 -16 30 -35 55 -41 55 -19 0
-133 -44 -203 -79 -35 -18 -69 -30 -76 -27 -21 8 -113 145 -159 236 -96 191
-137 362 -138 570 0 213 35 367 128 555 177 363 511 620 913 705 124 26 333
26 460 0z"/>
<path d="M6218 11950 c-101 -16 -181 -70 -222 -149 -10 -18 -33 -34 -73 -50
-91 -37 -186 -96 -230 -144 -71 -77 -77 -158 -27 -362 24 -97 53 -167 113
-271 26 -45 33 -51 55 -47 22 5 26 11 26 39 0 37 5 39 44 24 20 -7 26 -17 26
-38 0 -116 204 -191 330 -122 74 41 109 116 80 170 -8 15 -6 21 9 30 25 13 62
13 95 0 23 -8 24 -12 15 -40 -14 -40 17 -106 66 -137 120 -78 313 -31 344 83
7 27 8 26 19 -24 7 -29 12 -83 12 -120 l0 -67 41 74 c57 102 133 282 155 366
23 91 25 243 2 303 -64 171 -240 342 -426 414 -143 56 -339 85 -454 68z m322
-436 c65 -35 125 -100 180 -193 44 -77 112 -217 125 -260 l8 -25 -30 25 c-34
29 -70 44 -128 55 l-40 8 40 6 40 5 -41 8 c-26 4 -57 2 -85 -7 l-44 -14 40 -2
40 -2 -36 -7 c-20 -4 -57 -20 -84 -35 -40 -24 -51 -26 -72 -17 -30 14 -74 14
-108 1 -22 -9 -37 -6 -83 17 -101 49 -244 29 -300 -42 -17 -22 -22 -23 -61
-13 l-42 11 6 61 c17 163 47 265 96 320 60 69 199 123 347 135 110 8 169 -1
232 -35z m182 -425 c39 -9 63 -22 91 -49 74 -74 38 -162 -80 -196 -98 -28
-213 8 -246 78 -15 33 -13 88 4 88 5 0 9 6 9 14 0 18 43 46 95 62 51 16 63 16
127 3z m-478 -26 c50 -24 86 -71 86 -111 0 -52 -58 -106 -133 -122 -153 -35
-292 74 -228 177 46 74 183 102 275 56z"/>
<path d="M6045 11124 l-30 -14 40 5 c22 3 62 5 88 5 30 0 46 4 42 10 -9 15
-106 11 -140 -6z"/>
<path d="M6614 10985 c-4 -9 -2 -21 4 -27 15 -15 44 -1 40 19 -4 23 -36 29
-44 8z"/>
<path d="M6117 10983 c-15 -14 -7 -43 12 -43 26 0 36 17 21 35 -14 16 -23 19
-33 8z"/>
<path d="M1373 9599 c-18 -5 -33 -11 -33 -12 0 -2 48 -4 108 -4 59 0 122 -3
140 -7 18 -4 32 -4 32 1 0 26 -179 42 -247 22z"/>
<path d="M2023 9593 c-57 -8 -38 -25 20 -18 28 4 90 2 136 -4 47 -6 87 -9 89
-6 20 19 -161 40 -245 28z"/>
<path d="M1438 9353 c-11 -3 -18 -14 -18 -29 0 -22 3 -24 54 -24 47 0 56 3 61
21 4 11 5 22 3 24 -7 6 -84 13 -100 8z"/>
<path d="M2054 9326 c-10 -27 6 -36 62 -36 52 0 55 2 52 23 -3 19 -10 22 -56
25 -39 2 -54 -1 -58 -12z"/>
<path d="M1887 8939 c-64 -18 -72 -18 -134 -4 -36 9 -67 14 -69 12 -2 -2 28
-18 66 -37 l69 -33 63 33 c56 29 91 51 78 49 -3 0 -36 -9 -73 -20z"/>
<path d="M1633 8720 c-24 -10 -43 -23 -43 -27 0 -15 83 -90 120 -109 48 -25
153 -25 200 0 43 23 110 75 110 85 0 13 -115 61 -144 61 -15 0 -43 -7 -62 -15
-34 -14 -38 -13 -61 5 -32 25 -66 25 -120 0z"/>
<path d="M1589 8342 c95 -111 174 -202 175 -202 1 0 82 81 181 181 l180 181
-106 -79 c-129 -98 -177 -118 -260 -110 -72 6 -127 39 -257 155 -85 76 -84 74
87 -126z"/>
<path d="M5915 7423 c-37 -9 -43 -26 -6 -19 18 3 63 6 100 6 46 0 62 3 51 10
-15 10 -108 12 -145 3z"/>
<path d="M6455 7260 c-3 -6 1 -13 10 -16 19 -8 30 0 20 15 -8 14 -22 14 -30 1z"/>
<path d="M5980 7195 c0 -10 7 -15 18 -13 21 4 19 22 -2 26 -10 2 -16 -3 -16
-13z"/>
<path d="M6246 6705 c-21 -8 -53 -11 -72 -8 -43 7 -89 -12 -114 -47 -22 -31
-26 -45 -10 -35 6 3 47 -1 92 -10 l81 -17 84 27 c46 15 86 31 88 35 7 11 -47
49 -83 60 -18 5 -43 3 -66 -5z"/>
<path d="M11109 7471 c-25 -10 -74 -37 -109 -61 -45 -31 -80 -46 -117 -52
-103 -16 -163 -46 -233 -117 -106 -106 -169 -253 -170 -391 0 -82 42 -221 106
-345 30 -60 59 -114 64 -118 4 -5 10 47 14 115 18 329 61 483 160 582 37 38
154 114 200 132 11 4 37 -14 79 -52 133 -125 287 -239 407 -303 43 -23 46 -27
87 -135 22 -61 49 -137 59 -168 10 -32 21 -58 25 -58 13 0 29 36 29 64 0 18 4
24 14 20 28 -11 106 189 106 270 -1 53 -27 129 -71 201 -47 79 -214 252 -318
331 -135 101 -229 125 -332 85z"/>
<path d="M11305 6820 c-7 -12 74 -12 120 0 23 6 12 8 -42 9 -39 0 -75 -3 -78
-9z"/>
<path d="M10910 6760 c-30 -6 -26 -7 25 -8 33 0 71 4 85 8 33 11 -60 11 -110
0z"/>
<path d="M11368 6633 c-27 -2 -48 -8 -48 -14 0 -14 101 -10 135 6 l30 13 -35
-1 c-19 0 -56 -2 -82 -4z"/>
<path d="M10945 6586 c-53 -7 -74 -14 -62 -19 39 -15 133 -1 162 24 11 10 7
10 -100 -5z"/>
<path d="M1540 4860 c-184 -34 -363 -158 -434 -301 -19 -38 -40 -95 -47 -126
-15 -77 -6 -211 21 -292 25 -76 104 -236 121 -247 9 -5 10 -2 5 12 -4 10 -12
68 -19 127 -27 262 63 459 241 528 78 30 216 37 314 15 249 -55 376 -221 395
-514 3 -51 8 -91 10 -88 2 2 11 44 19 92 19 119 18 290 -2 367 -47 182 -191
341 -368 406 -66 24 -187 35 -256 21z"/>
<path d="M1892 4270 c-46 -11 -55 -24 -12 -17 20 3 56 1 80 -3 50 -9 61 -6 33
8 -30 16 -66 20 -101 12z"/>
<path d="M1350 4194 l-25 -15 25 5 c14 3 52 6 85 7 43 0 54 3 40 9 -32 14 -98
11 -125 -6z"/>
<path d="M1864 4055 c-9 -23 9 -37 42 -33 21 2 29 8 29 23 0 26 -62 35 -71 10z"/>
<path d="M1381 4017 c-20 -24 -2 -48 33 -45 26 2 31 7 31 28 0 19 -6 26 -26
28 -14 2 -31 -3 -38 -11z"/>
<path d="M1618 3518 c-27 -11 -48 -25 -48 -30 0 -18 95 -51 152 -52 47 -1 63
4 99 29 23 17 44 35 46 41 8 23 -128 46 -142 24 -4 -7 -12 -7 -25 0 -25 13
-27 13 -82 -12z"/>
<path d="M6495 2516 c-135 -43 -256 -151 -357 -320 -46 -77 -52 -82 -96 -93
l-47 -12 50 6 c28 3 51 9 53 13 16 40 116 185 163 235 120 127 233 180 376
173 194 -10 340 -143 398 -363 17 -65 32 -215 22 -215 -4 0 -45 16 -91 35
-125 52 -209 69 -266 55 -25 -6 -57 -22 -71 -36 -25 -23 -26 -24 -58 -8 -18 9
-43 14 -57 11 -19 -3 -28 3 -45 30 -45 73 -139 93 -331 69 -149 -19 -158 -21
-159 -50 -4 -72 4 -136 25 -178 26 -55 15 -54 -14 0 -10 20 -19 32 -20 26 0
-6 12 -29 26 -50 l27 -39 -8 -190 c-5 -104 -8 -255 -9 -335 -1 -136 1 -148 24
-194 87 -171 371 -270 573 -200 58 20 150 102 202 179 88 134 171 329 220 520
19 72 45 151 59 175 14 25 26 52 26 60 0 8 -10 -5 -21 -30 -11 -24 -26 -51
-33 -60 -7 -8 -19 -44 -26 -80 -37 -195 -174 -511 -275 -632 -119 -145 -269
-180 -474 -112 -137 46 -221 120 -256 225 -14 41 -16 74 -11 182 3 73 9 216
12 320 3 103 10 187 14 187 4 0 13 -7 20 -15 20 -24 121 -56 195 -62 123 -9
198 27 230 112 10 24 15 60 13 79 -4 34 -2 36 25 36 15 0 36 -4 46 -10 17 -9
18 -13 4 -62 -28 -101 19 -179 130 -218 63 -22 187 -27 250 -9 61 17 111 73
136 153 26 85 26 90 -1 105 -23 11 -23 11 2 6 24 -5 24 -4 4 6 -18 9 -22 23
-28 86 -21 248 -134 418 -321 484 -64 22 -188 25 -250 5z m-123 -446 c38 -11
99 -71 79 -78 -6 -2 -11 -11 -11 -19 0 -9 6 -13 15 -9 12 4 15 -5 15 -47 0
-105 -58 -151 -190 -150 -79 1 -156 22 -203 55 -40 28 -67 96 -67 166 l0 60
38 5 c20 4 57 10 82 15 63 13 198 14 242 2z m503 -85 c81 -28 207 -88 198 -94
-4 -3 -9 -19 -11 -36 -9 -86 -56 -145 -134 -166 -107 -29 -277 15 -318 83 -32
53 -25 158 11 158 11 0 19 5 19 10 0 6 -5 10 -11 10 -16 0 0 20 35 41 25 17
43 19 96 16 36 -3 88 -12 115 -22z"/>
<path d="M6021 1993 c1 -27 5 -61 9 -78 l7 -30 7 30 c13 56 26 114 26 119 0 3
-11 6 -25 6 -23 0 -25 -3 -24 -47z m28 0 c-16 -60 -17 -61 -18 -10 -1 34 3 47
13 47 12 0 13 -7 5 -37z"/>
<path d="M6235 1960 c-18 -20 -18 -21 2 -41 17 -17 24 -19 42 -10 25 14 27 34
5 55 -20 21 -27 20 -49 -4z"/>
<path d="M6760 1895 c-18 -22 -1 -50 31 -50 20 0 24 5 24 30 0 23 -5 31 -21
33 -11 2 -27 -4 -34 -13z"/>
<path d="M7121 1905 c-1 -11 -4 -31 -6 -45 l-6 -25 11 25 c6 13 9 33 7 45 -4
19 -4 19 -6 0z"/>
<path d="M6332 1408 c-23 -11 -42 -24 -42 -28 0 -4 25 -25 56 -46 49 -34 64
-39 113 -39 31 0 78 8 105 19 l49 19 -36 33 c-31 29 -44 34 -86 34 -27 0 -64
7 -83 14 -32 14 -38 13 -76 -6z"/>
<path d="M5805 840 c21 -22 41 -40 44 -40 3 0 -13 18 -34 40 -21 22 -41 40
-44 40 -3 0 13 -18 34 -40z"/>
<path d="M7186 825 c-9 -26 -7 -32 5 -12 6 10 9 21 6 23 -2 3 -7 -2 -11 -11z"/>
<path d="M5940 736 c0 -3 9 -10 20 -16 11 -6 20 -8 20 -6 0 3 -9 10 -20 16
-11 6 -20 8 -20 6z"/>
<path d="M5990 706 c0 -3 9 -10 20 -16 11 -6 20 -8 20 -6 0 3 -9 10 -20 16
-11 6 -20 8 -20 6z"/>
<path d="M6175 550 c49 -49 92 -90 95 -90 2 0 -36 41 -85 90 -49 50 -92 90
-95 90 -2 0 36 -40 85 -90z"/>
</g>
</svg>
